<mxfile host="Electron" modified="2024-03-26T03:30:24.589Z" agent="Mozilla/5.0 (Windows NT 10.0; Win64; x64) AppleWebKit/537.36 (KHTML, like Gecko) draw.io/24.1.0 Chrome/120.0.6099.109 Electron/28.1.0 Safari/537.36" etag="3iv0goQAxwrnWwY1_kWG" version="24.1.0" type="device">
  <diagram name="Página-1" id="E1FiAW42C4UlVONc21SC">
    <mxGraphModel dx="1434" dy="844" grid="1" gridSize="10" guides="1" tooltips="1" connect="1" arrows="1" fold="1" page="1" pageScale="1" pageWidth="827" pageHeight="1169" math="0" shadow="0">
      <root>
        <mxCell id="0" />
        <mxCell id="1" parent="0" />
        <mxCell id="9D2NUOyK-NhDolmGYvU6-9" style="rounded=0;orthogonalLoop=1;jettySize=auto;html=1;exitX=0.5;exitY=0.5;exitDx=0;exitDy=0;exitPerimeter=0;" parent="1" source="9D2NUOyK-NhDolmGYvU6-1" target="9D2NUOyK-NhDolmGYvU6-3" edge="1">
          <mxGeometry relative="1" as="geometry" />
        </mxCell>
        <mxCell id="9D2NUOyK-NhDolmGYvU6-10" style="rounded=0;orthogonalLoop=1;jettySize=auto;html=1;exitX=0.5;exitY=0.5;exitDx=0;exitDy=0;exitPerimeter=0;entryX=0;entryY=0.5;entryDx=0;entryDy=0;" parent="1" source="9D2NUOyK-NhDolmGYvU6-1" target="9D2NUOyK-NhDolmGYvU6-4" edge="1">
          <mxGeometry relative="1" as="geometry" />
        </mxCell>
        <mxCell id="9D2NUOyK-NhDolmGYvU6-11" style="rounded=0;orthogonalLoop=1;jettySize=auto;html=1;exitX=0.5;exitY=0.5;exitDx=0;exitDy=0;exitPerimeter=0;entryX=0;entryY=0.5;entryDx=0;entryDy=0;" parent="1" source="9D2NUOyK-NhDolmGYvU6-1" target="9D2NUOyK-NhDolmGYvU6-5" edge="1">
          <mxGeometry relative="1" as="geometry" />
        </mxCell>
        <mxCell id="9D2NUOyK-NhDolmGYvU6-1" value="Actor" style="shape=umlActor;verticalLabelPosition=bottom;verticalAlign=top;html=1;" parent="1" vertex="1">
          <mxGeometry x="204" y="555" width="30" height="60" as="geometry" />
        </mxCell>
        <mxCell id="9D2NUOyK-NhDolmGYvU6-2" value="frame" style="shape=umlFrame;whiteSpace=wrap;html=1;pointerEvents=0;" parent="1" vertex="1">
          <mxGeometry x="304" y="325" width="320" height="520" as="geometry" />
        </mxCell>
        <mxCell id="9D2NUOyK-NhDolmGYvU6-3" value="Gerenciar&lt;div&gt;Jardins&lt;/div&gt;" style="ellipse;whiteSpace=wrap;html=1;" parent="1" vertex="1">
          <mxGeometry x="394" y="365" width="140" height="70" as="geometry" />
        </mxCell>
        <mxCell id="9D2NUOyK-NhDolmGYvU6-4" value="Gerenciar&lt;div&gt;Setores (Áreas)&lt;/div&gt;" style="ellipse;whiteSpace=wrap;html=1;" parent="1" vertex="1">
          <mxGeometry x="394" y="485" width="140" height="70" as="geometry" />
        </mxCell>
        <mxCell id="9D2NUOyK-NhDolmGYvU6-5" value="Gerenciar&lt;div&gt;Dispositivos&lt;/div&gt;" style="ellipse;whiteSpace=wrap;html=1;" parent="1" vertex="1">
          <mxGeometry x="394" y="605" width="140" height="70" as="geometry" />
        </mxCell>
        <mxCell id="9D2NUOyK-NhDolmGYvU6-6" value="Gerenciar Programações de Irrigação" style="ellipse;whiteSpace=wrap;html=1;" parent="1" vertex="1">
          <mxGeometry x="394" y="725" width="140" height="70" as="geometry" />
        </mxCell>
        <mxCell id="9D2NUOyK-NhDolmGYvU6-12" style="rounded=0;orthogonalLoop=1;jettySize=auto;html=1;exitX=0.5;exitY=0.5;exitDx=0;exitDy=0;exitPerimeter=0;entryX=-0.007;entryY=0.614;entryDx=0;entryDy=0;entryPerimeter=0;" parent="1" source="9D2NUOyK-NhDolmGYvU6-1" target="9D2NUOyK-NhDolmGYvU6-6" edge="1">
          <mxGeometry relative="1" as="geometry" />
        </mxCell>
      </root>
    </mxGraphModel>
  </diagram>
</mxfile>
